  <svg xmlns="http://www.w3.org/2000/svg" shape-rendering="geometricPrecision" text-rendering="geometricPrecision"
        viewBox="0 0 1920 1080">
        <g fill="#128cff">
          <circle cx="400" cy="882" r="80" />
          <circle cx="276" cy="922" r="80" />
          <circle cx="23" cy="933" r="80" />
          <circle cx="621" cy="885" r="90" />
          <circle cx="714" cy="854" r="80" />
          <circle cx="811" cy="810" r="69" />
          <circle cx="916" cy="832" r="80" />
          <circle cx="1017" cy="798" r="80" />
          <circle cx="1109" cy="767" r="80" />
          <circle cx="1190" cy="760" r="80" />
          <circle cx="1832" cy="673" r="80" />
          <circle cx="1690" cy="859" r="80" />
          <circle cx="1777" cy="761" r="62" />
          <circle cx="1922" cy="660" r="62" />
          <circle cx="1397" cy="823" r="80" />
          <circle cx="1527" cy="823" r="100" />
          <circle cx="1295.5" cy="761.5" r="52.5" />
          <circle cx="502" cy="898" r="65" />
          <circle cx="154" cy="952" r="65" />
          <path d="M1920 656v563L-1 1243V940l1267-178 420 96 153-201z" />
        </g>
      </svg>