 <svg xmlns="http://www.w3.org/2000/svg" xmlns:xlink="http://www.w3.org/1999/xlink" viewBox="0 0 125 200" width="125" height="200" preserveAspectRatio="xMidYMid meet" style="width: 100%; height: 100%; transform: translate3d(0px, 0px, 0px); content-visibility: visible;"><defs>
 <linearGradient id="gradient1" x1="0%" y1="0%" x2="100%" y2="0%">
    <stop offset="0%" style="stop-color:#1a6ef4; stop-opacity:1" />
    <stop offset="50%" style="stop-color:#3f83f8; stop-opacity:1" />
    <stop offset="100%" style="stop-color:#3f83f8; stop-opacity:1" />
  </linearGradient>
 <clipPath id="__lottie_element_10"><rect width="125" height="200" x="0" y="0"></rect></clipPath><g id="__lottie_element_12"><g style="display: block;" transform="matrix(1.3200000524520874,0,0,1.3200000524520874,63.707359313964844,103.87200164794922)" opacity="1"><g opacity="1" transform="matrix(1,0,0,1,0,0)"><path stroke-linecap="round" stroke-linejoin="miter" fill-opacity="0" stroke-miterlimit="4" stroke="url(#gradient1)" stroke-opacity="1" stroke-width="3" d=" M40.779998779296875,59.12200164794922 C40.779998779296875,59.12200164794922 38.83300018310547,66.5 39,69.5 C31.850000381469727,66.5739974975586 24.27400016784668,66.76399993896484 17.58300018310547,68.59100341796875"></path></g></g></g><mask id="__lottie_element_12_1" mask-type="alpha"><use xlink:href="#__lottie_element_12"></use></mask><g id="__lottie_element_18"><g style="display: block;" transform="matrix(1,0,0,1,62.369998931884766,100.0999984741211)" opacity="1"><g opacity="1" transform="matrix(1,0,0,1,0,0)"><path fill="url(#gradient1)" fill-opacity="1" d=" M28.06999969482422,26.610000610351562 C28.06999969482422,26.610000610351562 28.06999969482422,26.809999465942383 28.06999969482422,26.809999465942383 C28.06999969482422,26.809999465942383 28.06999969482422,26.799999237060547 28.06999969482422,26.799999237060547 C28.06999969482422,26.799999237060547 28.06999969482422,26.610000610351562 28.06999969482422,26.610000610351562z M24.950000762939453,26.75 C24.950000762939453,26.75 24.950000762939453,26.690000534057617 24.950000762939453,26.690000534057617 C24.950000762939453,26.690000534057617 23.950000762939453,26.649999618530273 23.950000762939453,26.649999618530273 C23.950000762939453,26.649999618530273 24.950000762939453,26.75 24.950000762939453,26.75z M58.5,-23.43000030517578 C55.02000045776367,-67.05000305175781 21,-55.43000030517578 24.790000915527344,17.479999542236328 C24.920000076293945,19.280000686645508 25.06999969482422,21.06999969482422 25.239999771118164,22.8700008392334 C25.239999771118164,22.8700008392334 25.31999969482422,22.8700008392334 25.31999969482422,22.8700008392334 C18.799999237060547,-53.599998474121094 55.630001068115234,-67.97000122070312 58.5,-23.43000030517578z M58.4900016784668,-23.18000030517578 C58.4900016784668,-22.489999771118164 58.4900016784668,-21.829999923706055 58.4900016784668,-21.18000030517578 C58.4900016784668,-21.18000030517578 58.5099983215332,-21.18000030517578 58.5099983215332,-21.18000030517578 C58.529998779296875,-21.829999923706055 58.52000045776367,-22.489999771118164 58.4900016784668,-23.18000030517578z M58.470001220703125,-20.31999969482422 C58.400001525878906,-19.75 58.400001525878906,-19.270000457763672 58.400001525878906,-18.75 C58.400001525878906,-18.75 58.41999816894531,-18.75 58.41999816894531,-18.75 C58.45000076293945,-19.270000457763672 58.470001220703125,-19.790000915527344 58.470001220703125,-20.31999969482422z M58.290000915527344,-17.399999618530273 C58.25,-17.020000457763672 58.18000030517578,-16.6299991607666 58.18000030517578,-16.25 C58.18000030517578,-16.25 58.20000076293945,-16.25 58.20000076293945,-16.25 C58.2400016784668,-16.600000381469727 58.27000045776367,-17.020000457763672 58.290000915527344,-17.399999618530273z M54.279998779296875,-34.45000076293945 C37.18000030517578,-73.11000061035156 25.829999923706055,-9.390000343322754 26.979999542236328,1.2999999523162842 C26.979999542236328,1.2999999523162842 27,1.2999999523162842 27,1.2999999523162842 C25.350000381469727,-14.800000190734863 40.13999938964844,-70.95999908447266 54.279998779296875,-34.45000076293945z M27.6200008392334,22.799999237060547 C27.239999771118164,19.030000686645508 26.979999542236328,15.239999771118164 26.8799991607666,11.470000267028809 C26.8799991607666,11.470000267028809 26.899999618530273,11.470000267028809 26.899999618530273,11.470000267028809 C26.989999771118164,15.25 27.239999771118164,19.030000686645508 27.6200008392334,22.799999237060547z M26.8799991607666,4.300000190734863 C26.8799991607666,5.570000171661377 26.8799991607666,6.829999923706055 26.8799991607666,8.100000381469727 C26.8799991607666,8.100000381469727 26.8799991607666,8.100000381469727 26.8799991607666,8.100000381469727 C26.90999984741211,5.070000171661377 26.899999618530273,5.550000190734863 26.8799991607666,4.300000190734863z M25.739999771118164,26.709999084472656 C25.739999771118164,26.709999084472656 25.649999618530273,26.709999084472656 25.649999618530273,26.709999084472656 C25.649999618530273,26.709999084472656 25.65999984741211,26.90999984741211 25.65999984741211,26.90999984741211 C25.65999984741211,26.90999984741211 25.739999771118164,26.90999984741211 25.739999771118164,26.90999984741211 C25.739999771118164,26.90999984741211 25.739999771118164,26.709999084472656 25.739999771118164,26.709999084472656z M24.40999984741211,26.8799991607666 C24.40999984741211,26.8799991607666 24.969999313354492,26.8799991607666 24.969999313354492,26.8799991607666 C24.969999313354492,26.8799991607666 24.959999084472656,26.8799991607666 24.959999084472656,26.8799991607666 C24.959999084472656,26.8799991607666 24.40999984741211,26.8799991607666 24.40999984741211,26.8799991607666z M28.260000228881836,22.739999771118164 C47.880001068115234,19.399999618530273 52.63999938964844,-3.259999990463257 55.15999984741211,-18.200000762939453 C54.709999084472656,-66.52999877929688 22.700000762939453,-50.22999954223633 28.260000228881836,22.739999771118164z M25.440000534057617,-14.699999809265137 C36.630001068115234,-87.30000305175781 79.7699966430664,-32.130001068115234 47.7599983215332,15.100000381469727 C47.7599983215332,15.100000381469727 47.7599983215332,15.100000381469727 47.7599983215332,15.100000381469727 C45.584999084472656,18.28499984741211 42.76499938964844,20.979999542236328 39.48400115966797,23.006999969482422 C36.202999114990234,25.034000396728516 32.53200149536133,26.350000381469727 28.709999084472656,26.8700008392334 C31.25,47.400001525878906 36.279998779296875,59.29999923706055 44.06999969482422,77.56999969482422 C37.150001525878906,66.69999694824219 29.780000686645508,42.41999816894531 28.06999969482422,26.959999084472656 C30.253999710083008,44.37300109863281 35.4010009765625,61.284000396728516 43.290000915527344,76.95999908447266 C43.290000915527344,76.95999908447266 43.150001525878906,76.79000091552734 43.150001525878906,76.79000091552734 C45.52000045776367,81.79000091552734 48.959999084472656,87.44000244140625 50.66999816894531,90.44000244140625 C51.41999816894531,82.88999938964844 51.66999816894531,81.87999725341797 53.349998474121094,80.51000213623047 C52.57500076293945,82.75199890136719 51.95399856567383,85.04399871826172 51.4900016784668,87.37000274658203 C52.959999084472656,81.2300033569336 53.209999084472656,81.43000030517578 53.4900016784668,80.58999633789062 C53.64099884033203,80.70500183105469 53.82099914550781,80.77400207519531 54.0099983215332,80.79000091552734 C54.0099983215332,80.79000091552734 54.16999816894531,80.33999633789062 54.16999816894531,80.33999633789062 C55.849998474121094,80.68000030517578 55.349998474121094,80.30000305175781 55.849998474121094,81.06999969482422 C54.66999816894531,83.35199737548828 54.020999908447266,85.87200164794922 53.95000076293945,88.44000244140625 C54.016998291015625,85.9469985961914 54.70399856567383,83.51000213623047 55.95000076293945,81.3499984741211 C55.31999969482422,111.75 51.11000061035156,88.70999908447266 26.18000030517578,96.19999694824219 C35.619998931884766,93.45999908447266 34.68000030517578,94.7300033569336 37.68000030517578,94.30999755859375 C27,94.80999755859375 27.190000534057617,96.12999725341797 26.190000534057617,96.01000213623047 C26.214000701904297,95.91600036621094 26.21500015258789,95.81800079345703 26.191999435424805,95.7239990234375 C26.16900062561035,95.62999725341797 26.124000549316406,95.54199981689453 26.059999465942383,95.47000122070312 C23.93000030517578,96.05000305175781 24.40999984741211,94.25 25.059999465942383,93.83999633789062 C29.68400001525879,92.62999725341797 34.42399978637695,91.91899871826172 39.20000076293945,91.72000122070312 C33.529998779296875,91.70999908447266 28.6200008392334,93.0199966430664 25.329999923706055,93.55000305175781 C28.8799991607666,91.47000122070312 29.959999084472656,92.30000305175781 31.1299991607666,91.73999786376953 C31.200000762939453,91.83000183105469 31.200000762939453,92 31.200000762939453,92.08999633789062 C35.380001068115234,90.94999694824219 39.439998626708984,91.4000015258789 43.70000076293945,91.2699966430664 C43.56999969482422,91.20999908447266 43.70000076293945,91.1500015258789 43.70000076293945,91.08999633789062 C39.5629997253418,90.84100341796875 35.4109992980957,91.04900360107422 31.31999969482422,91.70999908447266 C39.09000015258789,90.45999908447266 44.720001220703125,90.6500015258789 49.779998779296875,91.95999908447266 C35.400001525878906,72 29.040000915527344,49.380001068115234 25.780000686645508,27.100000381469727 C25.780000686645508,27.100000381469727 25.690000534057617,27.100000381469727 25.690000534057617,27.100000381469727 C28.0049991607666,45.69300079345703 33.56999969482422,63.73400115966797 42.130001068115234,80.4000015258789 C32.02000045776367,62.7400016784668 27.6299991607666,45.400001525878906 24.989999771118164,27.06999969482422 C-19.020000457763672,12.579999923706055 -45,-39.099998474121094 -59.369998931884766,-87.5999984741211 C-57.16999816894531,-88.68000030517578 -55.779998779296875,-78 -52.81999969482422,-71.18000030517578 C-52.81999969482422,-71.18000030517578 -52.47999954223633,-71.30000305175781 -52.47999954223633,-71.30000305175781 C-56.97999954223633,-85.54000091552734 -59.439998626708984,-94.87000274658203 -59.310001373291016,-97.5999984741211 C-45.02000045776367,-53.86000061035156 -22.3700008392334,5.090000152587891 24.559999465942383,22.829999923706055 C23.999000549316406,17.111000061035156 23.761999130249023,11.364999771118164 23.850000381469727,5.619999885559082 C23.850000381469727,5.619999885559082 24.209999084472656,5.619999885559082 24.209999084472656,5.619999885559082 C32.59000015258789,-120.27999877929688 95.52999877929688,3.5799999237060547 28.700000762939453,26.530000686645508 C28.700000762939453,26.530000686645508 28.700000762939453,26.739999771118164 28.700000762939453,26.739999771118164 C89.77999877929688,8.680000305175781 42.02000045776367,-107.19000244140625 25.440000534057617,-14.699999809265137z"></path></g></g></g><mask id="__lottie_element_18_1" mask-type="alpha"><use xlink:href="#__lottie_element_18"></use></mask></defs><g clip-path="url(#__lottie_element_10)"><g mask="url(#__lottie_element_18_1)" style="display: block;"><g transform="matrix(1.3200000524520874,0,0,1.3200000524520874,63.70736312866211,103.8733139038086)" opacity="1"><g opacity="1" transform="matrix(1,0,0,1,0,0)"><path stroke-linecap="round" stroke-linejoin="miter" fill-opacity="0" stroke-miterlimit="4" stroke="url(#gradient1)" stroke-opacity="1" stroke-width="3" d=" M-46.17900085449219,-74.7239990234375 C-46.17900085449219,-74.7239990234375 -28.757999420166016,-7.46999979019165 11.868000030517578,13.920999526977539 C12.925999641418457,14.477999687194824 17.658000946044922,15.970000267028809 18.952999114990234,16.047000885009766 C37.34199905395508,17.14299964904785 52.1150016784668,-25.660999298095703 35.06700134277344,-38.999000549316406 C24.992000579833984,-45.380001068115234 0.7900000214576721,13.164999961853027 37.09600067138672,66.97599792480469"></path></g></g></g><g mask="url(#__lottie_element_12_1)" style="display: block;"><g transform="matrix(1,0,0,1,62.369998931884766,100.0999984741211)" opacity="1"><g opacity="1" transform="matrix(1,0,0,1,0,0)"><path fill="url(#gradient1)" fill-opacity="1" d=" M28.06999969482422,26.610000610351562 C28.06999969482422,26.610000610351562 28.06999969482422,26.809999465942383 28.06999969482422,26.809999465942383 C28.06999969482422,26.809999465942383 28.06999969482422,26.799999237060547 28.06999969482422,26.799999237060547 C28.06999969482422,26.799999237060547 28.06999969482422,26.610000610351562 28.06999969482422,26.610000610351562z M24.950000762939453,26.75 C24.950000762939453,26.75 24.950000762939453,26.690000534057617 24.950000762939453,26.690000534057617 C24.950000762939453,26.690000534057617 23.950000762939453,26.649999618530273 23.950000762939453,26.649999618530273 C23.950000762939453,26.649999618530273 24.950000762939453,26.75 24.950000762939453,26.75z M58.5,-23.43000030517578 C55.02000045776367,-67.05000305175781 21,-55.43000030517578 24.790000915527344,17.479999542236328 C24.920000076293945,19.280000686645508 25.06999969482422,21.06999969482422 25.239999771118164,22.8700008392334 C25.239999771118164,22.8700008392334 25.31999969482422,22.8700008392334 25.31999969482422,22.8700008392334 C18.799999237060547,-53.599998474121094 55.630001068115234,-67.97000122070312 58.5,-23.43000030517578z M58.4900016784668,-23.18000030517578 C58.4900016784668,-22.489999771118164 58.4900016784668,-21.829999923706055 58.4900016784668,-21.18000030517578 C58.4900016784668,-21.18000030517578 58.5099983215332,-21.18000030517578 58.5099983215332,-21.18000030517578 C58.529998779296875,-21.829999923706055 58.52000045776367,-22.489999771118164 58.4900016784668,-23.18000030517578z M58.470001220703125,-20.31999969482422 C58.400001525878906,-19.75 58.400001525878906,-19.270000457763672 58.400001525878906,-18.75 C58.400001525878906,-18.75 58.41999816894531,-18.75 58.41999816894531,-18.75 C58.45000076293945,-19.270000457763672 58.470001220703125,-19.790000915527344 58.470001220703125,-20.31999969482422z M58.290000915527344,-17.399999618530273 C58.25,-17.020000457763672 58.18000030517578,-16.6299991607666 58.18000030517578,-16.25 C58.18000030517578,-16.25 58.20000076293945,-16.25 58.20000076293945,-16.25 C58.2400016784668,-16.600000381469727 58.27000045776367,-17.020000457763672 58.290000915527344,-17.399999618530273z M54.279998779296875,-34.45000076293945 C37.18000030517578,-73.11000061035156 25.829999923706055,-9.390000343322754 26.979999542236328,1.2999999523162842 C26.979999542236328,1.2999999523162842 27,1.2999999523162842 27,1.2999999523162842 C25.350000381469727,-14.800000190734863 40.13999938964844,-70.95999908447266 54.279998779296875,-34.45000076293945z M27.6200008392334,22.799999237060547 C27.239999771118164,19.030000686645508 26.979999542236328,15.239999771118164 26.8799991607666,11.470000267028809 C26.8799991607666,11.470000267028809 26.899999618530273,11.470000267028809 26.899999618530273,11.470000267028809 C26.989999771118164,15.25 27.239999771118164,19.030000686645508 27.6200008392334,22.799999237060547z M26.8799991607666,4.300000190734863 C26.8799991607666,5.570000171661377 26.8799991607666,6.829999923706055 26.8799991607666,8.100000381469727 C26.8799991607666,8.100000381469727 26.8799991607666,8.100000381469727 26.8799991607666,8.100000381469727 C26.90999984741211,5.070000171661377 26.899999618530273,5.550000190734863 26.8799991607666,4.300000190734863z M25.739999771118164,26.709999084472656 C25.739999771118164,26.709999084472656 25.649999618530273,26.709999084472656 25.649999618530273,26.709999084472656 C25.649999618530273,26.709999084472656 25.65999984741211,26.90999984741211 25.65999984741211,26.90999984741211 C25.65999984741211,26.90999984741211 25.739999771118164,26.90999984741211 25.739999771118164,26.90999984741211 C25.739999771118164,26.90999984741211 25.739999771118164,26.709999084472656 25.739999771118164,26.709999084472656z M24.40999984741211,26.8799991607666 C24.40999984741211,26.8799991607666 24.969999313354492,26.8799991607666 24.969999313354492,26.8799991607666 C24.969999313354492,26.8799991607666 24.959999084472656,26.8799991607666 24.959999084472656,26.8799991607666 C24.959999084472656,26.8799991607666 24.40999984741211,26.8799991607666 24.40999984741211,26.8799991607666z M28.260000228881836,22.739999771118164 C47.880001068115234,19.399999618530273 52.63999938964844,-3.259999990463257 55.15999984741211,-18.200000762939453 C54.709999084472656,-66.52999877929688 22.700000762939453,-50.22999954223633 28.260000228881836,22.739999771118164z M25.440000534057617,-14.699999809265137 C36.630001068115234,-87.30000305175781 79.7699966430664,-32.130001068115234 47.7599983215332,15.100000381469727 C47.7599983215332,15.100000381469727 47.7599983215332,15.100000381469727 47.7599983215332,15.100000381469727 C45.584999084472656,18.28499984741211 42.76499938964844,20.979999542236328 39.48400115966797,23.006999969482422 C36.202999114990234,25.034000396728516 32.53200149536133,26.350000381469727 28.709999084472656,26.8700008392334 C31.25,47.400001525878906 36.279998779296875,59.29999923706055 44.06999969482422,77.56999969482422 C37.150001525878906,66.69999694824219 29.780000686645508,42.41999816894531 28.06999969482422,26.959999084472656 C30.253999710083008,44.37300109863281 35.4010009765625,61.284000396728516 43.290000915527344,76.95999908447266 C43.290000915527344,76.95999908447266 43.150001525878906,76.79000091552734 43.150001525878906,76.79000091552734 C45.52000045776367,81.79000091552734 48.959999084472656,87.44000244140625 50.66999816894531,90.44000244140625 C51.41999816894531,82.88999938964844 51.66999816894531,81.87999725341797 53.349998474121094,80.51000213623047 C52.57500076293945,82.75199890136719 51.95399856567383,85.04399871826172 51.4900016784668,87.37000274658203 C52.959999084472656,81.2300033569336 53.209999084472656,81.43000030517578 53.4900016784668,80.58999633789062 C53.64099884033203,80.70500183105469 53.82099914550781,80.77400207519531 54.0099983215332,80.79000091552734 C54.0099983215332,80.79000091552734 54.16999816894531,80.33999633789062 54.16999816894531,80.33999633789062 C55.849998474121094,80.68000030517578 55.349998474121094,80.30000305175781 55.849998474121094,81.06999969482422 C54.66999816894531,83.35199737548828 54.020999908447266,85.87200164794922 53.95000076293945,88.44000244140625 C54.016998291015625,85.9469985961914 54.70399856567383,83.51000213623047 55.95000076293945,81.3499984741211 C55.31999969482422,111.75 51.11000061035156,88.70999908447266 26.18000030517578,96.19999694824219 C35.619998931884766,93.45999908447266 34.68000030517578,94.7300033569336 37.68000030517578,94.30999755859375 C27,94.80999755859375 27.190000534057617,96.12999725341797 26.190000534057617,96.01000213623047 C26.214000701904297,95.91600036621094 26.21500015258789,95.81800079345703 26.191999435424805,95.7239990234375 C26.16900062561035,95.62999725341797 26.124000549316406,95.54199981689453 26.059999465942383,95.47000122070312 C23.93000030517578,96.05000305175781 24.40999984741211,94.25 25.059999465942383,93.83999633789062 C29.68400001525879,92.62999725341797 34.42399978637695,91.91899871826172 39.20000076293945,91.72000122070312 C33.529998779296875,91.70999908447266 28.6200008392334,93.0199966430664 25.329999923706055,93.55000305175781 C28.8799991607666,91.47000122070312 29.959999084472656,92.30000305175781 31.1299991607666,91.73999786376953 C31.200000762939453,91.83000183105469 31.200000762939453,92 31.200000762939453,92.08999633789062 C35.380001068115234,90.94999694824219 39.439998626708984,91.4000015258789 43.70000076293945,91.2699966430664 C43.56999969482422,91.20999908447266 43.70000076293945,91.1500015258789 43.70000076293945,91.08999633789062 C39.5629997253418,90.84100341796875 35.4109992980957,91.04900360107422 31.31999969482422,91.70999908447266 C39.09000015258789,90.45999908447266 44.720001220703125,90.6500015258789 49.779998779296875,91.95999908447266 C35.400001525878906,72 29.040000915527344,49.380001068115234 25.780000686645508,27.100000381469727 C25.780000686645508,27.100000381469727 25.690000534057617,27.100000381469727 25.690000534057617,27.100000381469727 C28.0049991607666,45.69300079345703 33.56999969482422,63.73400115966797 42.130001068115234,80.4000015258789 C32.02000045776367,62.7400016784668 27.6299991607666,45.400001525878906 24.989999771118164,27.06999969482422 C-19.020000457763672,12.579999923706055 -45,-39.099998474121094 -59.369998931884766,-87.5999984741211 C-57.16999816894531,-88.68000030517578 -55.779998779296875,-78 -52.81999969482422,-71.18000030517578 C-52.81999969482422,-71.18000030517578 -52.47999954223633,-71.30000305175781 -52.47999954223633,-71.30000305175781 C-56.97999954223633,-85.54000091552734 -59.439998626708984,-94.87000274658203 -59.310001373291016,-97.5999984741211 C-45.02000045776367,-53.86000061035156 -22.3700008392334,5.090000152587891 24.559999465942383,22.829999923706055 C23.999000549316406,17.111000061035156 23.761999130249023,11.364999771118164 23.850000381469727,5.619999885559082 C23.850000381469727,5.619999885559082 24.209999084472656,5.619999885559082 24.209999084472656,5.619999885559082 C32.59000015258789,-120.27999877929688 95.52999877929688,3.5799999237060547 28.700000762939453,26.530000686645508 C28.700000762939453,26.530000686645508 28.700000762939453,26.739999771118164 28.700000762939453,26.739999771118164 C89.77999877929688,8.680000305175781 42.02000045776367,-107.19000244140625 25.440000534057617,-14.699999809265137z"></path></g></g></g></g></svg> 




