<svg width="2257" height="670" viewBox="0 0 2257 670" fill="none" xmlns="http://www.w3.org/2000/svg">
<g clip-path="url(#clip0_4123_1329)">
<line x1="2257" y1="663.128" x2="0.154541" y2="663.128" stroke="#848484" stroke-opacity="0.25" stroke-width="0.484489"/>
<line x1="2256.76" y1="662.885" x2="2256.76" y2="0.0010071" stroke="#848484" stroke-opacity="0.25" stroke-width="0.484489"/>
<line x1="2124" y1="662.887" x2="2124" y2="0.00228884" stroke="#848484" stroke-opacity="0.25" stroke-width="0.484489"/>
<line x1="1991.25" y1="662.887" x2="1991.25" y2="0.00228884" stroke="#848484" stroke-opacity="0.25" stroke-width="0.484489"/>
<line x1="1858.49" y1="662.887" x2="1858.49" y2="0.00228884" stroke="#848484" stroke-opacity="0.25" stroke-width="0.484489"/>
<line x1="1725.73" y1="662.887" x2="1725.73" y2="0.00228884" stroke="#848484" stroke-opacity="0.25" stroke-width="0.484489"/>
<line x1="1592.98" y1="662.887" x2="1592.98" y2="0.00228884" stroke="#848484" stroke-opacity="0.25" stroke-width="0.484489"/>
<line x1="1460.22" y1="662.887" x2="1460.22" y2="0.00228884" stroke="#848484" stroke-opacity="0.25" stroke-width="0.484489"/>
<line x1="1327.47" y1="662.886" x2="1327.47" y2="0.00189211" stroke="#848484" stroke-opacity="0.25" stroke-width="0.484489"/>
<line x1="1194.72" y1="662.886" x2="1194.72" y2="0.00189211" stroke="#848484" stroke-opacity="0.25" stroke-width="0.484489"/>
<line x1="1061.96" y1="662.886" x2="1061.96" y2="0.00189211" stroke="#848484" stroke-opacity="0.25" stroke-width="0.484489"/>
<line x1="929.202" y1="662.886" x2="929.202" y2="0.00189211" stroke="#848484" stroke-opacity="0.25" stroke-width="0.484489"/>
<line x1="796.449" y1="662.886" x2="796.449" y2="0.00189211" stroke="#848484" stroke-opacity="0.25" stroke-width="0.484489"/>
<line x1="663.69" y1="662.886" x2="663.69" y2="0.00189211" stroke="#848484" stroke-opacity="0.25" stroke-width="0.484489"/>
<line x1="530.936" y1="662.887" x2="530.936" y2="0.00228884" stroke="#848484" stroke-opacity="0.25" stroke-width="0.484489"/>
<line x1="398.178" y1="662.887" x2="398.178" y2="0.00228884" stroke="#848484" stroke-opacity="0.25" stroke-width="0.484489"/>
<line x1="265.423" y1="662.887" x2="265.423" y2="0.00228884" stroke="#848484" stroke-opacity="0.25" stroke-width="0.484489"/>
<line x1="264.643" y1="400.274" x2="264.643" y2="0.000938405" stroke="url(#paint0_radial_4123_1329)" stroke-width="0.484489"/>
<line x1="531.977" y1="264.727" x2="531.977" y2="665" stroke="url(#paint1_radial_4123_1329)" stroke-width="0.484489"/>
<line y1="-0.242244" x2="400.273" y2="-0.242244" transform="matrix(1.19249e-08 -1 -1 -1.19249e-08 929.891 491.336)" stroke="url(#paint2_radial_4123_1329)" stroke-width="0.484489"/>
<line x1="1327.8" y1="662.881" x2="1327.8" y2="292.257" stroke="url(#paint3_radial_4123_1329)" stroke-width="0.484489"/>
<line x1="1725.96" y1="571.813" x2="1725.96" y2="201.19" stroke="url(#paint4_radial_4123_1329)" stroke-width="0.484489"/>
<line x1="2124.11" y1="383.325" x2="2124.11" y2="12.7013" stroke="url(#paint5_radial_4123_1329)" stroke-width="0.484489"/>
<line x1="132.666" y1="662.887" x2="132.666" y2="0.00228884" stroke="#848484" stroke-opacity="0.25" stroke-width="0.484489"/>
<line x1="-0.0859944" y1="662.887" x2="-0.0860525" y2="0.00228884" stroke="#848484" stroke-opacity="0.25" stroke-width="0.484489"/>
<line x1="2257" y1="530.551" x2="0.154541" y2="530.551" stroke="#848484" stroke-opacity="0.25" stroke-width="0.484489"/>
<line x1="2257" y1="397.975" x2="0.154541" y2="397.975" stroke="#848484" stroke-opacity="0.25" stroke-width="0.484489"/>
<line x1="2257" y1="265.398" x2="0.154541" y2="265.398" stroke="#848484" stroke-opacity="0.25" stroke-width="0.484489"/>
<line x1="2257" y1="132.821" x2="0.154541" y2="132.821" stroke="#848484" stroke-opacity="0.25" stroke-width="0.484489"/>
<line x1="2257" y1="0.243587" x2="0.154541" y2="0.243587" stroke="#848484" stroke-opacity="0.25" stroke-width="0.484489"/>
<rect x="1458.57" y="530.309" width="130.859" height="130.683" transform="rotate(180 1458.57 530.309)" fill="#616161" fill-opacity="0.03"/>
<rect x="1856.83" y="265.155" width="130.859" height="130.683" transform="rotate(180 1856.83 265.155)" fill="#616161" fill-opacity="0.03"/>
<rect x="1060.3" y="265.156" width="130.859" height="130.683" transform="rotate(180 1060.3 265.156)" fill="#616161" fill-opacity="0.03"/>
<rect x="1461" y="264" width="134" height="131" transform="rotate(180 1461 264)" fill="#616161" fill-opacity="0.03"/>
<rect x="662.033" y="530.309" width="130.859" height="130.683" transform="rotate(180 662.033 530.309)" fill="#656565" fill-opacity="0.04"/>





<g filter="url(#filter0_f_4123_1329)">
<path d="M1406.98 -54.8725C1406.98 -105.357 1447.94 -146.283 1498.46 -146.283H1638.72C1689.24 -146.283 1730.2 -105.357 1730.2 -54.8725V85.291C1730.2 135.776 1694.95 129.544 1644.42 129.544L1410.99 227.27C1241.01 285.847 1222.08 334.191 1406.98 85.291V-54.8725Z" fill="url(#paint6_linear_4123_1329)"/>
</g>
<g style="mix-blend-mode:overlay" filter="url(#filter1_f_4123_1329)">
<path d="M1462.44 -27.1915C1462.44 -50.9181 1481.65 -70.1523 1505.34 -70.1523H1571.13C1594.83 -70.1523 1614.04 -50.9181 1614.04 -27.1915V38.6818C1614.04 62.4083 1597.51 59.4797 1573.81 59.4797L1439.67 129.419C780.481 564.847 1375.71 155.658 1462.44 38.6818V-27.1915Z" fill="url(#paint7_linear_4123_1329)"/>
</g>
<g style="mix-blend-mode:overlay" filter="url(#filter2_f_4123_1329)">
<path d="M1711.16 -199.222C1711.16 -241.073 1745.1 -275 1786.96 -275L1903.2 -275C1945.06 -275 1979 -241.073 1979 -199.222V-83.0289C1979 -41.1778 1949.79 -46.3437 1907.92 -46.3437L1670.93 77.0213C506.332 845.068 1557.93 123.305 1711.16 -83.0289V-199.222Z" fill="url(#paint8_linear_4123_1329)"/>
</g>
<g style="mix-blend-mode:overlay" filter="url(#filter3_f_4123_1329)">
<path d="M1727.8 -216.355C1727.8 -248.744 1754.06 -275 1786.46 -275H1876.39C1908.79 -275 1935.05 -248.744 1935.05 -216.355V-126.433C1935.05 -94.0442 1912.44 -98.0421 1880.05 -98.0421L1696.67 -2.56953C795.532 591.824 1609.24 33.2492 1727.8 -126.433V-216.355Z" fill="url(#paint9_linear_4123_1329)"/>
</g>
</g>
<defs>



<filter id="filter0_f_4123_1329" x="1006.05" y="-416.004" width="993.875" height="960.125" filterUnits="userSpaceOnUse" color-interpolation-filters="sRGB">
<feFlood flood-opacity="0" result="BackgroundImageFix"/>
<feBlend mode="normal" in="SourceGraphic" in2="BackgroundImageFix" result="shape"/>
<feGaussianBlur stdDeviation="134.86" result="effect1_foregroundBlur_4123_1329"/>
</filter>



 <filter id="filter1_f_4123_1329" x="1078.98" y="-124.096" width="589.006" height="503.456" filterUnits="userSpaceOnUse" color-interpolation-filters="sRGB">
<feFlood flood-opacity="0" result="BackgroundImageFix"/>
<feBlend mode="normal" in="SourceGraphic" in2="BackgroundImageFix" result="shape"/>
<feGaussianBlur stdDeviation="26.9721" result="effect1_foregroundBlur_4123_1329"/>
</filter>


<filter id="filter2_f_4123_1329" x="1102.03" y="-301.972" width="903.944" height="751.682" filterUnits="userSpaceOnUse" color-interpolation-filters="sRGB">
<feFlood flood-opacity="0" result="BackgroundImageFix"/>
<feBlend mode="normal" in="SourceGraphic" in2="BackgroundImageFix" result="shape"/>
<feGaussianBlur stdDeviation="13.486" result="effect1_foregroundBlur_4123_1329"/>
</filter>



 <filter id="filter3_f_4123_1329" x="1250.37" y="-301.972" width="711.654" height="593.926" filterUnits="userSpaceOnUse" color-interpolation-filters="sRGB">
<feFlood flood-opacity="0" result="BackgroundImageFix"/>
<feBlend mode="normal" in="SourceGraphic" in2="BackgroundImageFix" result="shape"/>
<feGaussianBlur stdDeviation="13.486" result="effect1_foregroundBlur_4123_1329"/>
</filter>  

<!-- 左一黄色竖 -->
 <radialGradient id="paint0_radial_4123_1329" cx="0" cy="0" r="1" gradientUnits="userSpaceOnUse" gradientTransform="translate(264.517 114.456) rotate(90) scale(142.59 34899.5)">
<stop stop-color="#FFF250"/>
<stop offset="1" stop-color="#FFF250" stop-opacity="0"/>
</radialGradient>


 <radialGradient id="paint1_radial_4123_1329" cx="0" cy="0" r="1" gradientUnits="userSpaceOnUse" gradientTransform="translate(532.103 550.545) rotate(-90) scale(142.59 34899.5)">
<stop stop-color="#FFF250"/>
<stop offset="1" stop-color="#FFF250" stop-opacity="0"/>
</radialGradient>

<!-- 左二黄色竖 -->
<radialGradient id="paint2_radial_4123_1329" cx="0" cy="0" r="1" gradientUnits="userSpaceOnUse" gradientTransform="translate(285.818 -0.36817) rotate(-180) scale(142.59 34899.5)">
<stop stop-color="#FFF250"/>
<stop offset="1" stop-color="#FFF250" stop-opacity="0"/>
</radialGradient>


<!-- 左三黄色竖 -->

<radialGradient id="paint3_radial_4123_1329" cx="0" cy="0" r="1" gradientUnits="userSpaceOnUse" gradientTransform="translate(1327.68 398.234) rotate(90) scale(132.027 34899.5)">
<stop stop-color="#FFF250"/>
<stop offset="1" stop-color="#FFF250" stop-opacity="0"/>
</radialGradient>

 <radialGradient id="paint4_radial_4123_1329" cx="0" cy="0" r="1" gradientUnits="userSpaceOnUse" gradientTransform="translate(1725.83 307.167) rotate(90) scale(132.027 34899.5)">
<stop stop-color="#FFF250"/>
<stop offset="1" stop-color="#FFF250" stop-opacity="0"/>
</radialGradient>

<radialGradient id="paint5_radial_4123_1329" cx="0" cy="0" r="1" gradientUnits="userSpaceOnUse" gradientTransform="translate(2123.98 118.678) rotate(90) scale(132.027 34899.5)">
<stop stop-color="#FFF250"/>
<stop offset="1" stop-color="#FFF250" stop-opacity="0"/>
</radialGradient>

<!-- 光背景-->
<!--  <linearGradient id="paint6_linear_4123_1329" x1="1425.4" y1="-45.6684" x2="1609.77" y2="138.833" gradientUnits="userSpaceOnUse">
<stop offset="0.0001" stop-color="#FFFD63"/>
<stop offset="1" stop-color="#FFFBF9"/>
</linearGradient>  -->

<!-- 光:第一道 -->
<!--  <linearGradient id="paint7_linear_4123_1329" x1="1570.01" y1="-88.0624" x2="1656.66" y2="-1.52281" gradientUnits="userSpaceOnUse">
<stop offset="0.0001" stop-color="white"/>
<stop offset="1" stop-color="#FFFD63"/>
</linearGradient> -->

<!-- 光:第三道 -->
<!--  <linearGradient id="paint8_linear_4123_1329" x1="1726.42" y1="-191.592" x2="1879.26" y2="-38.7004" gradientUnits="userSpaceOnUse">
<stop stop-color="#FFFD63"/>
<stop offset="0.0001" stop-color="#FFFD63"/>
<stop offset="0.461458" stop-color="#FAF9B3"/>
<stop offset="1" stop-color="#FFFD63"/>
</linearGradient>  -->

<!-- 光:第二道 -->
<!-- <linearGradient id="paint9_linear_4123_1329" x1="1739.61" y1="-210.45" x2="1857.89" y2="-92.1463" gradientUnits="userSpaceOnUse">
<stop stop-color="#FFFD63"/>
<stop offset="0.0001" stop-color="#FFFD63"/>
<stop offset="0.461458" stop-color="#FAF9B3"/>
<stop offset="1" stop-color="#FFFD63"/>
</linearGradient> -->

<clipPath id="clip0_4123_1329">
<rect width="2257" height="670" fill="white"/>
</clipPath>
</defs>
</svg>
