<svg viewBox="0 0 24 24" xmlns="http://www.w3.org/2000/svg" name="spiral"><path fill="rgb(123, 93, 214)" d="M19.609 1.462c.174.13.363.251.523.396s.323.283.474.435a6.553 6.553 0 0 1 1.512 2.447c.332.933.403 1.936.206 2.904a4.825 4.825 0 0 1-1.511 2.599 5.96 5.96 0 0 1-2.66 1.342 6.703 6.703 0 0 1-2.976 0c-.247-.051-.491-.144-.735-.217s-.474-.209-.709-.319-.45-.268-.663-.427l-.311-.266c-.064-.054-.125-.105-.186-.161a2.12 2.12 0 0 1-.163-.192l-.471-.585a3.7 3.7 0 0 1-.116-.212 1.88 1.88 0 0 1-.221-.907 1.61 1.61 0 0 1 .317-.879 3.38 3.38 0 0 1 .712-.675l.442-.263c.159-.085.324-.158.494-.218.269-.094.548-.159.831-.195a4.95 4.95 0 0 1 1.66.065 5.618 5.618 0 0 1 2.087.93c.322.231.614.497.872.794.137.147.236.302.355.452s.212.316.291.483a6.84 6.84 0 0 1 .75 2.099 9.4 9.4 0 0 1 .14 2.164c-.02.359-.049.715-.105 1.065a7.492 7.492 0 0 1-.215 1.077c-.105.39-.264.763-.474 1.11a3.14 3.14 0 0 1-.916.949 3.46 3.46 0 0 1-1.189.503 4.969 4.969 0 0 1-1.186.11 8.379 8.379 0 0 1-2.122-.35c.81.259 1.659.383 2.511.367.477-.015.949-.11 1.392-.282a3.255 3.255 0 0 0 1.247-.87c.312-.367.551-.788.703-1.24a7.13 7.13 0 0 0 .291-1.229 10.55 10.55 0 0 0 .125-2.427c-.113-1.627-.68-3.39-2.128-4.614a6.025 6.025 0 0 0-1.163-.735 6.052 6.052 0 0 0-1.317-.427 5.413 5.413 0 0 0-1.421-.071 4.545 4.545 0 0 0-1.081.246 3.494 3.494 0 0 0-.439.192l-.384.232a2.525 2.525 0 0 0-.349.268 2.06 2.06 0 0 0-.558.636 1.554 1.554 0 0 0-.212.794c.006.277.073.55.198.8.136.258.305.498.503.715.096.116.177.237.291.345l.311.282c.09.074.174.155.273.223l.291.189c.099.062.198.127.291.184l.314.147a6.39 6.39 0 0 0 2.651.565 6.772 6.772 0 0 0 2.642-.523 5.431 5.431 0 0 0 2.206-1.661 4.965 4.965 0 0 0 1.02-2.582 5.798 5.798 0 0 0-.384-2.647 6.596 6.596 0 0 0-1.413-2.229 6.187 6.187 0 0 1 1.538 1.834c.484.866.726 1.84.703 2.825l-.047.492-.029.246-.058.246-.125.486c-.049.158-.122.314-.186.469a5.489 5.489 0 0 1-1.119 1.664 6.672 6.672 0 0 1-3.366 1.735 7.233 7.233 0 0 1-3.683-.246l-.224-.073-.221-.099-.433-.201a4.137 4.137 0 0 1-.416-.252 3.21 3.21 0 0 1-.401-.282 19.6 19.6 0 0 1-.413-.35 3.225 3.225 0 0 1-.439-.503l-.41-.525a2.347 2.347 0 0 1-.27-.565l.262-.04a1.86 1.86 0 0 1 .096-1.562c.126-.244.299-.462.512-.641l.325-.283c.116-.085.247-.158.369-.237.123-.085.253-.158.39-.22l.413-.17a5.21 5.21 0 0 1 2.029-.232 5.897 5.897 0 0 1 2.436.788 5.7 5.7 0 0 1 1.023.768c.155.151.301.309.439.475.122.164.256.322.36.494.435.662.749 1.392.927 2.159.174.724.255 1.466.241 2.21a11.433 11.433 0 0 1-.23 2.142 6.475 6.475 0 0 1-.34 1.13 3.928 3.928 0 0 1-.724 1.156c-.331.36-.736.649-1.189.848a4.325 4.325 0 0 1-1.311.333 7.232 7.232 0 0 1-2.363-.206 16.728 16.728 0 0 1-4.906-2.1l-.451-.282a8.463 8.463 0 0 1-.474-.35 4.775 4.775 0 0 1-.898-.932c-.07-.1-.135-.204-.195-.311a2.781 2.781 0 0 1-.174-.376 2.527 2.527 0 0 1-.169-.814 2.488 2.488 0 0 1 .483-1.579 3.35 3.35 0 0 1 1.198-.997c.217-.109.444-.199.677-.268s.472-.114.715-.133l.352-.031h.352c.235.007.468.035.698.085-.517-.136-.201-.127-.078-.144.055 0 .07-.023-.049-.057a2.604 2.604 0 0 0-.291-.065 8.94 8.94 0 0 0-.581-.04c.244 0 .433.025.581.04.098.016.195.038.291.065.119.034.105.048.049.057-.116-.023-.232-.048-.349-.062l-.36-.023a4.066 4.066 0 0 0-.715.025c-.5.049-.985.193-1.427.424a3.423 3.423 0 0 0-1.244 1.057 2.645 2.645 0 0 0-.497 1.664c.012.294.072.585.177.862a3.224 3.224 0 0 0 .384.721c.259.362.568.687.919.966.16.13.317.252.477.359s.291.201.453.3c.291.192.605.37.918.543a16.59 16.59 0 0 0 3.962 1.56 7.772 7.772 0 0 0 2.363.246 4.69 4.69 0 0 0 1.337-.282 3.714 3.714 0 0 0 1.273-.786 3.82 3.82 0 0 0 .837-1.167 5.52 5.52 0 0 0 .392-1.164c.087-.376.139-.718.186-1.071s.073-.709.084-1.068a8.255 8.255 0 0 0-.994-4.391 6.127 6.127 0 0 0-.724-1.003 5.666 5.666 0 0 0-.968-.867 6.267 6.267 0 0 0-2.375-.997 5.27 5.27 0 0 0-2.753.206c-.16.058-.316.126-.468.203l-.398.243-.198.122a2.014 2.014 0 0 0-.174.144l-.346.297c-.42.409-.664.957-.683 1.534.011-.446.16-.878.427-1.24.066-.092.138-.18.215-.263l.267-.232.282-.226.308-.189c.207-.145.433-.264.671-.353.145-.057.215-.088.308-.116l.273-.073a4.748 4.748 0 0 1 1.093-.155 5.995 5.995 0 0 1 3.846 1.277 6.374 6.374 0 0 1 2.107 3.212 9.527 9.527 0 0 1 .326 3.486 11.21 11.21 0 0 1-.267 1.709 4.695 4.695 0 0 1-.918 1.902 3.766 3.766 0 0 1-.933.794 4.098 4.098 0 0 1-1.087.452 5.855 5.855 0 0 1-2.035.133 9.46 9.46 0 0 1-.918-.141 15.597 15.597 0 0 1-2.454-.755 16.502 16.502 0 0 1-2.991-1.545 8.456 8.456 0 0 1-.741-.531 5.53 5.53 0 0 1-.744-.723 3.552 3.552 0 0 1-.639-1.093 2.802 2.802 0 0 1 .456-2.704 3.64 3.64 0 0 1 .244-.283c.081-.082.16-.15.244-.22.16-.131.33-.25.509-.356a4.213 4.213 0 0 1 1.107-.441c.19-.049.385-.081.581-.093a4.18 4.18 0 0 1 .581-.028 4.88 4.88 0 0 1 2.131.534 5.858 5.858 0 0 1 1.636 1.24 5.942 5.942 0 0 1 1.581 3.614 6.018 6.018 0 0 1-.244 1.978 6.899 6.899 0 0 1-.788 1.752 9.011 9.011 0 0 1-2.616 2.628 10.195 10.195 0 0 1-3.41 1.478 8.543 8.543 0 0 1-3.86.028 6.77 6.77 0 0 1-1.744-.67 6.082 6.082 0 0 1-1.494-1.192 6.577 6.577 0 0 1-.764-1.173 6.139 6.139 0 0 1-.465-1.319 4.734 4.734 0 0 1 .218-2.856c.1-.241.222-.472.363-.692a4.63 4.63 0 0 1 .5-.602 4.42 4.42 0 0 1 1.221-.864c.896-.444 1.914-.599 2.907-.444-.267.042-.209.155-.122.266s.206.254.131.33c-.076.076-.119.054-.27.079-.076 0-.169.02-.291.025l-.404.042a4.925 4.925 0 0 0-1.203.308 3.7 3.7 0 0 0-1.584 1.153l.209.15a3.099 3.099 0 0 1 1.712-1.014 2.95 2.95 0 0 1 1.546.042c.334.106.631.302.855.565.12.142.193.317.209.5.023.15 0 .229-.099.229a.651.651 0 0 1-.174-.048.806.806 0 0 1-.186-.059 3.135 3.135 0 0 0-.581-.133 2.46 2.46 0 0 0-1.046.133c-.236.08-.456.197-.654.345a1.48 1.48 0 0 0-.401.489 1.503 1.503 0 0 0-.113.311c0 .059-.029.116-.038.178a1.275 1.275 0 0 1-.02.186c-.006.276.035.551.122.814.2.599.577 1.128 1.084 1.52.067.042.134.088.198.136l.201.116c.154.078.313.147.477.206.347.121.708.198 1.075.229a6.86 6.86 0 0 0 4.625-1.458 5.353 5.353 0 0 0 1.529-1.811 2.891 2.891 0 0 0-.262-3.281 2.755 2.755 0 0 0-1.07-.848 2.525 2.525 0 0 0-.291-.105l-.291-.051a1.777 1.777 0 0 0-.273 0h-.134a1.008 1.008 0 0 0-.474.198s-.041.034-.035.034c.027.05.059.098.096.141.064.078.135.151.212.218.464.379.965.715 1.494 1.003.567.32 1.156.603 1.761.848.305.119.61.229.921.328.157.051.314.096.471.141s.291.079.433.11c.361.085.733.125 1.104.119a2.62 2.62 0 0 0 .433-.057c.101-.03.199-.071.291-.121a.829.829 0 0 0 .218-.181c.081-.1.149-.21.201-.328a4.56 4.56 0 0 0 .291-1.13 7.717 7.717 0 0 0 0-2.582 4.906 4.906 0 0 0-.36-1.15 3.398 3.398 0 0 0-.291-.506 3.12 3.12 0 0 0-.334-.435 3.226 3.226 0 0 0-1.907-.963 2.406 2.406 0 0 0-.988.065.544.544 0 0 0-.276.15.208.208 0 0 0 .026.282l.049.065a.103.103 0 0 0 .035.034l.073.065c.134.119.279.225.433.319a4.29 4.29 0 0 0 2.244.523 3.993 3.993 0 0 0 1.866-.565 2.939 2.939 0 0 0 1.235-1.497 3.152 3.152 0 0 0 .067-1.774 8.188 8.188 0 0 0-.442-1.229 3.398 3.398 0 0 1-.308-.692c-.02-.116.049-.147.157-.144.346.386.623.826.817 1.302.201.464.312.96.326 1.464.022.485-.071.969-.273 1.413a3.063 3.063 0 0 1-.872 1.144c-1.509 1.288-4.177 1.342-5.624.071l-.119-.102-.09-.11a1.467 1.467 0 0 1-.171-.223.443.443 0 0 1 0-.52.695.695 0 0 1 .201-.192 1.36 1.36 0 0 1 .357-.201l.049-.017a.99.99 0 0 1 .096-.034 2.63 2.63 0 0 1 .404-.082c.583-.059 1.172.023 1.715.239s1.022.559 1.395.998c.756.91 1.081 2.159 1.084 3.424a9.473 9.473 0 0 1-.16 1.901c-.066.51-.288.989-.637 1.376.581-.477.843-2.014.872-3.229 0-1.263-.291-2.517-1.038-3.455-.372-.451-.854-.806-1.402-1.033s-1.145-.318-1.737-.267a2.28 2.28 0 0 0-.703.192 1.453 1.453 0 0 0-.244.15c-.081.053-.151.119-.209.195s-.089.17-.084.266a.602.602 0 0 0 .093.268c.051.081.11.158.174.229l.096.11.122.102c1.439 1.277 4.087 1.257 5.63 0 .387-.305.698-.692.91-1.13l.145-.333c.035-.116.058-.234.093-.353.033-.118.052-.239.058-.362a2.15 2.15 0 0 0 .026-.367 4.309 4.309 0 0 0-.291-1.483 5.222 5.222 0 0 0-.776-1.345c.198.034.404.088.343-.212l-.157-.167a3.548 3.548 0 0 0-.392-.393l-.259-.223c-.093-.073-.195-.133-.291-.198a3.53 3.53 0 0 0-.541-.311 6.888 6.888 0 0 0-1.404-.658c-.32-.107-.474-.209-.477-.305s.145-.184.421-.263a3.133 3.133 0 0 1 1.125-.065c.224.045.474.082.724.155l.378.133c.141.037.278.087.41.15z"></path></svg>