<svg viewBox="0 0 24 24" xmlns="http://www.w3.org/2000/svg" name="circle-3"><path  fill="rgb(123, 93, 214)" d="M2.462 10.68c0 .063.17-.083.205-.098-.083-.053-.24.127-.205.098ZM1.57 9.886h.088l-.234-.132.146.132ZM1.487 8.736c-.175.044-.16.16-.122.282.04.122.132.244.073.356l-.097.059.283.053a3.762 3.762 0 0 0-.137-.4.487.487 0 0 1 0-.35ZM2.282 8.248c-.142 0-.093-.136-.069.117h.035a.385.385 0 0 1 .034-.117Z"></path><path fill="rgb(123, 93, 214)"  d="M2.248 8.346c0 .107.121-.049 0 0ZM2.291 7.844c.022.059.048.116.078.17.078 0 .137-.121.18-.063-.024-.15-.087-.15-.258-.107ZM2.092 7.63v.092c.063-.005.078-.02 0-.093Z"></path><path fill="rgb(123, 93, 214)"   d="m2.17 7.912-.054-.19c-.059 0-.166-.024 0 .088-.078-.044.005.014.053.102ZM2.097 7.97c-.088.06-.161.161-.244 0-.02.308.234.303.244 0ZM1.102 8.653 1 8.78l.117.121c-.059-.063.097-.253-.015-.248ZM2.803 7.079a1.872 1.872 0 0 0-.288-.083l.025.136c.068-.024.16-.097.263-.053Z"></path><path fill="rgb(123, 93, 214)"  d="m2.516 6.996-.054-.21c-.063.132 0 .21.054.21ZM1.736 7.483c.053.122.107.244.165.356a6.76 6.76 0 0 1-.15-.414l-.015.058ZM3.125 6.572l.087.17c-.044-.092-.078-.18-.117-.277l.03.107ZM3.344 6.246c.068.136.244.092.263.2a.638.638 0 0 0 0-.371c-.02.107-.088.16-.263.17ZM3.592 5.865a.634.634 0 0 0 0 .21.633.633 0 0 0 0-.21ZM2.667 6.557c.08.033.168.033.248 0l-.21-.048-.038.048ZM2.696 6.509l.088-.117-.088.117ZM2.657 6.572s-.02-.02 0 0ZM2.087 7.103c-.078-.141-.069-.404-.337-.282.098.136.225.063.337.282ZM2.389 6.509c-.05.044-.097.092-.141.141.053 0 .136.034.165.107a1.432 1.432 0 0 1-.024-.248ZM2.384 6.392l.005.112.053-.049-.058-.063ZM3.246 5.939a.331.331 0 0 1 .098-.268.78.78 0 0 0-.263.185c.039.053.097.165.165.083ZM4.09 5.11l-.035-.024.02.029.015-.005ZM3.042 5.841c-.083.034-.083.098-.059.176a.458.458 0 0 1 .098-.161s-.03-.04-.04-.015ZM3.71 5.632a.662.662 0 0 0-.171 0c.073.019.195.048.17 0ZM3.017 6.182c.05.02.035.01 0 0ZM3.017 6.182a.668.668 0 0 0-.034-.16.487.487 0 0 0-.024.146l.058.014ZM3.714 3.78a.292.292 0 0 1-.346.395c-.102.243.37.682.687.91-.034-.077-.078-.14.035-.34-.108-.059-.488 0-.459-.22.19-.224.234-.058.395-.034-.224-.16.151-.487-.058-.76l-.176.224c-.029-.044.015-.165-.078-.175ZM3.763 5.256l-.044.064a.575.575 0 0 1 .341.073.37.37 0 0 0 0-.278 3.193 3.193 0 0 0-.317.18l.02-.039Z"></path><path fill="rgb(123, 93, 214)"  d="M3.466 5.534c-.098-.195 0-.39-.244-.487-.17.17 0 .243-.049.4.24-.278 0 .155.273.073a.487.487 0 0 1-.102.16c.064-.019.129-.034.195-.044-.03 0-.044 0 0 0a.531.531 0 0 1-.073-.102c.102-.034.048.034.039.073.057-.105.122-.206.195-.302-.059.03-.132.088-.234.23ZM1.448 6.426a.073.073 0 0 1 .049 0c-.01-.03-.01-.044-.049 0ZM1.643 6.328c0 .044.073.108 0 .18-.073.074-.092-.043-.156-.072 0 .082.04.253.215.136v-.039c.136-.117.487-.16.487-.117a1.394 1.394 0 0 0-.546-.088ZM2.51 5.773c.04-.107.088-.215.137-.317h-.253l.068.078c-.132.117 0 .17.049.239ZM4.172 5.178l.083.21-.015-.356-.068.146ZM4.499 4.969l.078.175.034-.146-.112-.03ZM18.601 18.17l-.034.131a.344.344 0 0 0 .034-.131ZM19.118 17.478l-.088-.068c.04.058.063.097.088.068ZM14.552 5.831c.044.22.034.541.127.346l.068-.21a.248.248 0 0 1-.195-.136ZM19.742 10.816l.058-.053-.214-.078.156.131ZM20.623 10.846l-.121.238a.719.719 0 0 0 .122-.238ZM14.956 21.328l-.053.258c.229-.098.078-.156.053-.258ZM8.577 4.16a.77.77 0 0 0 .293.146c-.137-.136-.244-.317-.293-.146ZM16.993 16.581a.14.14 0 0 0 .054.142c.005-.069-.005-.122-.054-.142ZM9.22 4.335l-.058-.053a.536.536 0 0 1-.292 0c.102.126.22.19.35.053ZM2.813 12.22v-.044c0-.015-.01.02 0 .044ZM5.815 8.36c-.018.05-.04.1-.064.147a.224.224 0 0 0 .064-.147ZM6.014 4.52c-.078.035 0 0 0 0ZM5.386 3.819a.146.146 0 0 0 0-.107.21.21 0 0 1 0 .107ZM10.351 3.166c-.015-.044-.01-.034 0 0ZM5.873 4.457a.35.35 0 0 0 .122.034.424.424 0 0 0-.122-.034ZM5.912 4.56h-.078c0 .029.039.048.078 0Z"></path><path fill="rgb(123, 93, 214)"  d="M6.131 4.486a.351.351 0 0 1-.14 0s.028 0 0 .03l.14-.03ZM7.335 19.715v-.03c-.166.005-.122.025 0 .03ZM18.319 5.646c-.312.073-.356 0-.41-.146l-.317.521c.234-.117.463-.248.727-.375Z"></path><path fill="rgb(123, 93, 214)"  d="m17.208 19.724.36-.058c-.063.487-.34.56.05.575-.2-.268 0-.458.209-.673.21-.214.385-.428.15-.672l.23-.044c-.04.034 0 .068-.059.102.488-.068-.165-.487.19-.809.137-.092.283-.121.278 0 .035-.126.063-.255.083-.384.073-.078.15 0 .078.087l.273-.487a2.663 2.663 0 0 1-.108-.487c.156-.064 0 .097.113.112v-.337c.21 0 .229.278.097.444.716.097 0-.293.619-.648l-.063.297c.419 0 .414-.253.765-.487-.147.034-.824.346-.819-.03a.337.337 0 0 0 .112-.38c.215.098.244-.082.307-.292l.283.132c0-.259-.147-.298-.23-.488.127-.234.366-.21.58-.204.186-.395-.462.156-.355-.341.22-.298.166-.58.073-1.024.151-.214.175.083.282 0l-.2-.263c0-.049.088 0 .123 0-.059-.2-.298-.073-.337-.36-.165-.069-.024-.186.122-.347.146-.16.263-.375.088-.56.093-.083.185.054.307.034a2.009 2.009 0 0 0-.487-.819l.185-.34c-.22.258-.488-.045-.76-.269-.103.093-.2.166-.244.215a3.922 3.922 0 0 0-.21-.366c.044-.053.156-.029.298 0l-.074.068c.098-.155.283-.112.488-.029a2.828 2.828 0 0 1-.17.17c.172.092.365.137.56.132a.355.355 0 0 1-.098-.131.196.196 0 0 0 .132 0c.034 0-.044-.059-.132-.122l.332-.141h-.142c.054-.204.093-.41.117-.62a6.255 6.255 0 0 0-.716-.486 2.373 2.373 0 0 1-.658-.575c.292.043.4-.127.682-.234-.234.282.317.428.346.79 0-.181.132-.186.19-.157a5.11 5.11 0 0 0-.487-.487c.239-.078.127-.19.16-.385-.394.302-.486-.288-.74-.434.136-.092.317-.122.414.176.176-.488-.706-.112-.6-.541.045.058.045.107.128.087-.205-.073-.346-.487-.176-.487l.049.059c-.224-.488-.975-1.165-1.291-.912.15-.128.314-.243.487-.34a9.996 9.996 0 0 0-1.55.457c.293-.219.62-1.052 1.058-.945a.488.488 0 0 0-.395-.317c.03.093-.18.522-.283.487.03-.487 0-.287-.102-.774.049.131-.385.487-.517.385.069-.054.303-.458.395-.488a12.52 12.52 0 0 0-.682.195c.141 0 .273-.375.268-.565 0 .117-.336-.22-.487-.234l.102.21c-.41-.337-.814.409-1.223.17.102-.078.448-.555.248-.73-.238.194-1.037.974-1.462 1.042v-.175c-.116 0-.238.034-.355.058a6.13 6.13 0 0 1 1.647-1.101c-.122-.195.03-.195-.239-.302-.034-.18.239-.142.322-.112a10.81 10.81 0 0 0-.595-.366c-.097.307-.604.112-.677.38.268-.024.531-.039.804-.044a.975.975 0 0 1-1.14.488c-.064-.166.282-.522.312-.624-.098.078-.488.054-.488-.034l.249-.103c-.215-.204-.541.273-.746-.112-.092-.053-.19-.487-.263-.316 0 .612-.141 1.216-.414 1.764a3.99 3.99 0 0 1-.488-.687c-.097-.327.42-.614.342-.897a.487.487 0 0 1-.195.195c-.093-.102.112-.258-.137-.278-.117.312-.487-.136-.175.249-.254.039-.23-.127-.487-.166.043.224-.386.668-.62.721a.525.525 0 0 0 0-.253 9.896 9.896 0 0 0-1.135-.336c-.034-.083-.243-.2-.136-.332-.073.054-.142.156-.278.156-.253-.302.312-.024.132-.38-.03.19-.38.249-.585.356.053.307.448.073.658 0a1.316 1.316 0 0 1-.834.974c-.346.098-.146-.268-.21-.21-.667-.058-.52.727-1.057.488-.238-.239-.068-.516-.136-.697.283-.126.463.117.653.103-.083-.04-.166-.078-.249-.108a.341.341 0 0 1 .39-.097c-.2-.244-1.145 0-1.705-.063-.078.102-.215.224-.117.311l.063-.053c.19.18-.234.346 0 .404-.175.195-.331.488-.638.444l-.146-.263a.19.19 0 0 0 .292 0c-.073.16-.57-.244-.56.175.087.034.175.083.263.127-.151.204-.249.594-.488.604.22.22.035-.059.327.195-.302-.346.56-.2.185-.541.302.326.341.054.653.331-.03-.092-.127-.16.078-.165a.515.515 0 0 1 0-.093s0-.024 0 0a.327.327 0 0 1-.136-.117c.034-.253.37-.317.458-.453.136 0-.03.122.058.214l.137-.204c.058.21.38.312.117.487l.253-.024a.458.458 0 0 0 .487.029c.122.03.297-.258.2-.088l.404-.146v.054c.4 0 .878-.351 1.321.092a.716.716 0 0 1 .526 0v.195c.19-.034.488.268.614.093.098.536.834.282 1.126.458l.073-.234c.24.058.487.073.731.044l.044-.215c.287-.097.546.336.901.449-.053.068-.131 0-.18-.059.239.614 1.018 0 1.243.522a.16.16 0 0 1 .214.112l.034.024c.034.024.044.112.068.166a.365.365 0 0 0-.048-.156c.1.035.205.057.312.063l-.069.23h.025c.053.126.131-.055.165-.24a.6.6 0 0 0 .205-.048c-.112.37.327.048.22.458.175-.132.555.19.847-.108-.024.05 0 .088-.068.054.078.117.151.234.317.21l-.141.268.487-.127c0 .253 0 .37-.283.438.531 0 .327.113.824.113l-.151.121c.087.083.419.054.35.22-.068.165.166.487.37.804.104.166.197.338.279.516.07.18.102.373.092.565.488-.336-.122.38.297.249-.112.083-.15.19-.297.132.224.282-.058.521.346.662-.127.069-.21-.024-.283 0 .035 0 .137.078.069.127-.069.049-.122-.024-.19-.063.097.312.487.292.887.258-.161.214-.117.292.146.41-.122.077-.249.194-.307-.03a2.745 2.745 0 0 0-.034.444c0 .175.029.34.185.35-.083.04 0 .18 0 .22a3.14 3.14 0 0 0-.054.604l.059-.073c.36.16.048.253.063.487h-.039c-.37.487.093.263-.336.711l.234.03c.487.18-.405.385-.327.721l.161-.063c.112.229-.804.214-.916.326-.054 0-.044-.078-.059-.136-.428.268.273.17.205.487-.175 0-.35-.239-.487-.063-.151 0 .21.789-.22.886.142 0 .288 0 .288.195-.083.234-.73.249-.521.649a.175.175 0 0 1-.108-.03c0 .195-.21.556-.121.775-.366-.21-.454.063-.566.307-.112.244-.204.487-.448.215-.127.126-.248.253-.385.365l-.034-.068a.56.56 0 0 0-.292.584c-.098 0-.083-.087-.103-.126a1.156 1.156 0 0 0-.487.2c-.11.148-.197.313-.258.487l-.137-.205c-.024.088-.224.083-.458.078a.975.975 0 0 0-.682.215.23.23 0 0 1 .024-.117c-.219.195-.565.092-.833 0-.268-.093-.487-.098-.575.35-.12.074-.243.14-.37.2.487.107-.098.375.097.536-.214.035-.487-.307-.243-.331l.029.049c.063-.23-.078-.273-.23-.317-.15-.044-.311-.083-.272-.234-.907-.136-1.608-.76-2.261-1.233l-.122.346a2.929 2.929 0 0 1-.234-.195c0-.112.088-.282.244-.146.034-.229-.38-.078-.439 0-.229-.38.385-.214.292-.307-.05-.026-.099-.056-.146-.088v.059c-.195 0-.307.127-.487-.054-.073-.165.088-.219.054-.273-.035-.053 0-.039-.064-.073-.063-.034-.16-.185-.234-.287-.034.102-.073.204-.102.302-.22-.024-.23-.283-.35.073.092-.268-.108-.56-.313-.843-.204-.283-.424-.536-.4-.648a.853.853 0 0 1-.492-.6c0 .093-.277.278-.365 0 .629-.2.049-.555.414-.925-.224.287-.321-.639-.638-.225 0-.219.229-.092.326-.292-.404-.404-.141-1.091-.292-1.662-.088 0-.205.122-.346 0 .122-.126.258-.248.395-.365-.05-.107-.488-.078-.22-.312-.068.034-.175.083-.204 0 .127-.597.206-1.203.239-1.813a1.871 1.871 0 0 1 .935-1.481c-.224.053-.19-.04-.131-.146-.078.048-.186-.108-.293-.151.173-.096.352-.179.536-.249-.112-.127-.039-.239.034-.35.073-.113.156-.196.054-.313l-.059.156c-.073-.195-.277-.268-.516-.316a1.545 1.545 0 0 1-.677-.22c.087.239-.151.293-.37.414-.22.122-.459.283-.288.634-.132.058-.093-.146-.215-.141.127.2.098.34-.092.56l-.034-.049a5.439 5.439 0 0 1-.385.877c-.173.31-.313.637-.42.975l.24-.03a.58.58 0 0 1-.2.288c.316.254.087-.516.443-.263-.244.078-.307.405-.331.721-.025.317-.054.614-.317.702 0 .288.268-.088.268.2l-.146.078.19.063a.37.37 0 0 1-.312.307c0-.044-.044-.127-.059-.175-.16.258.112.692.073.78l.083-.293c.205.76.24 1.745.77 2.354l.088-.088c.385.453 0 .487.365.975h-.029a.668.668 0 0 1 .327.346c-.185-.083-.083.37-.302.253.487.443.292.195.843.331l-.112.186a.566.566 0 0 1 .487.21c-.268-.118-.117.316-.448.199a.702.702 0 0 0 .448.628c.185.113.317.195.2.488.287-.049.248-.2.16-.332-.087-.131-.21-.248-.117-.219.05-.204.434-.039.527.132.092.17-.259.687.136 1.057-.034-.039-.063 0-.097-.053.048.238.4.14.448.458.297-.142.234.219.487-.059-.15-.073-.282-.16-.424-.239.273.112.741-.097.975.332a.698.698 0 0 1-.341.039c.039.17.239.092.287.258-.253.302-.526-.268-.935-.23 0 .23.624.128.243.371.488-.292.405.375.936.23l-.136.184a.61.61 0 0 1 .316 0l-.321.161c.394-.078.41.488.755.488-.57-.259 0-.307-.16-.575.394.034.428.194.487.409a.565.565 0 0 0 .472.575c-.126 0-.375-.278-.16-.317.153.103.282.24.375.4.575.102 0-.254.253-.327.112.317.297-.039.546-.078l-.049.234c.61.249.249-.443.77-.195a3.152 3.152 0 0 1-.273.317c.104-.01.206-.025.307-.049l-.088.259c.351-.176.439-.098.765-.03a.326.326 0 0 1 .312-.433c.195.131-.097.234.298.17-.078.156-.176.351-.356.132 0 .078-.088.15-.107.224.219.17.54 0 .687 0a.263.263 0 0 1-.166-.04c.19-.118.372-.248.546-.389.102.073.044.156 0 .239.112-.049.175-.17.341-.22 0 .195.044.386-.195.522.18-.107.356-.205.521-.317.054.069.342.142.288.23.356.029.643-.58 1.067-.605a.293.293 0 0 1 .103-.151c.365-.112.794-.078 1.047-.54l.405.14c.258-.258-.527-.165-.112-.594.258-.332.292.146.487.131.073-.263.107-.75.575-.789-.083.098-.195.127-.263.22Zm2.436-3.41c0 .092.064.306-.083.296-.175-.204-.044-.204.103-.292l-.02-.005Zm.444-6.136c.087.044.063.141 0 .253a.331.331 0 0 1 .02-.248l-.02-.005ZM6.93 4.17c.15.073.097.044-.005.005l.005-.005Zm-.312-.059a.078.078 0 0 0 0 .098c0-.059.078-.073.156-.069-.034-.068-.078-.068-.161-.024l.005-.005Zm.926 13.718v.087c-.151-.043-.078-.058-.005-.082l.005-.005Z"></path><path fill="rgb(123, 93, 214)"  d="M20.521 10.84a.388.388 0 0 1-.127.045c.044.01.098.01.127-.044ZM11.896 2.547c.051.037.089.09.107.151.02-.054 0-.088-.107-.151ZM5.225 4.867l.146-.117c-.078.039-.122 0-.18 0 .024.029.083.092.034.117ZM3.056 4.384c0 .044-.053.044-.058.083l.073.083c.102-.083.127-.21-.015-.166ZM4.782 4.204c-.088-.18-.18-.068-.293 0 .098.273.19.136.293 0ZM4.46 4.243a.35.35 0 0 1-.112.058c.034.107.063 0 .112-.058ZM6.263 4.306c-.073-.039 0 .254-.044.185-.02.259.35-.385.044-.185ZM4.426 3.643l.146.205v-.214l-.146.01ZM5.61 3.439h-.224a.088.088 0 0 1-.04.097c.118-.034.283-.03.264-.097ZM5.322 3.531a.229.229 0 0 0-.17.098.707.707 0 0 0 .17-.098ZM4.708 3.448l.088.025.166-.034-.254.01ZM8.149 3.215l.263-.064c.029-.083-.04-.136-.142-.107-.102.03-.16.093-.121.17ZM7.335 2.562c.078.048.088.102.131.18V2.44l-.131.122ZM8.13 2.479c.028-.088.409-.239.053-.224-.03.082-.307.15-.054.224ZM12.096 3.458l-.068-.014-.117.482.185-.468ZM15.96 3.716c-.249-.272-.214.23-.424-.048-.122.073.17.224.049.278.239-.015.302.126.375-.23ZM15.585 3.946a.448.448 0 0 0-.127 0 .322.322 0 0 0 .127 0ZM6.38 8l.19-.064-.2-.019.01.083ZM6.307 7.513l.263.18-.146-.273c-.015.063-.064.117-.117.093ZM20.492 16.011l-.064-.049c-.087 0-.117.049-.175.142l.239-.093ZM18.66 18.594l.044-.04-.288-.106.244.146ZM16.93 20.723c.102-.058.17-.19.268-.248-.17.19-.497-.025-.268.248Z"></path></svg>