<?xml version="1.0" encoding="utf-8"?>
<!-- Generator: Adobe Illustrator 26.2.0, SVG Export Plug-In . SVG Version: 6.00 Build 0)  -->
<svg version="1.1" id="Layer_1" xmlns="http://www.w3.org/2000/svg" xmlns:xlink="http://www.w3.org/1999/xlink" x="0px" y="0px"
	 viewBox="0 0 1473.6 51.5" style="enable-background:new 0 0 1473.6 51.5;" xml:space="preserve">
<style type="text/css">
	.st0{fill:#302F2E;}
	.st1{fill:#2a2e2f;}
</style>
<!--#E6F2E4  #3d50f5 -->
<!-- <g>
	<path class="st0" d="M1472.4,35V15c-6.9,0-11.4,2.1-15.6,4.6c-0.1,0.1-0.3,0.2-0.4,0.2c-0.8,0.4-1.5,0.9-2.2,1.3
		c-0.1,0.1-0.3,0.2-0.4,0.2c-4.5,2.7-9.2,5.2-16.6,5.2c-16,0-19.2-11.5-35.2-11.5c-3.5,0-6.4,0.6-8.9,1.4c-1,0.3-2,0.7-2.9,1.2
		c-0.4,0.2-0.8,0.4-1.2,0.6c-1.1,0.6-2.2,1.2-3.2,1.8c-0.3,0.2-0.6,0.4-1,0.6c-0.2,0.1-0.5,0.3-0.7,0.4c-4.7,2.8-9.5,5.6-17.3,5.6
		c-16,0-19.2-11.5-35.2-11.5c-16,0-19.2,11.5-35.2,11.5c-16,0-19.2-11.5-35.1-11.5v0c0,0,0,0-0.1,0c0,0,0,0-0.1,0v0l0,0v0
		c-15.9,0.1-19.1,11.5-35.1,11.5c-16,0-19.2-11.5-35.2-11.5c-16,0-19.2,11.5-35.3,11.5c-16,0-19.2-11.5-35.2-11.5
		c-16,0-19.2,11.5-35.2,11.5c-13.6,0-18-8.4-28.9-10.8c-1.1-0.3-2.3-0.5-3.6-0.6V15c-0.5,0-0.9,0-1.4,0c-0.4,0-0.9,0-1.4,0v0.1
		c-0.4,0-0.8,0.1-1.3,0.1s-0.8,0.1-1.2,0.2c-1.6,0.3-3,0.7-4.3,1.2c-0.3,0.1-0.7,0.2-1,0.4c-8.1,3.3-12.9,9.5-24.7,9.5
		c-16,0-19.2-11.5-35.2-11.5c-16,0-19.2,11.5-35.3,11.5c-16,0-19.2-11.5-35.2-11.5s-19.2,11.5-35.2,11.5c-16,0-19.2-11.5-35.1-11.5
		v0h0v0c0,0,0,0-0.1,0c0,0,0,0-0.1,0v0l0,0v0c-15.9,0.1-19.1,11.5-35.1,11.5c-16,0-19.2-11.5-35.2-11.5c-16,0-19.2,11.5-35.3,11.5
		c-16,0-19.2-11.5-35.2-11.5c-16,0-19.2,11.5-35.2,11.5c-15.5,0-19-10.8-33.8-11.5v0c-0.2,0-0.5,0-0.7,0h0l0,0c0,0,0,0,0,0
		c-0.2,0-0.5,0-0.7,0v0c-14.8,0.7-18.3,11.5-33.8,11.5c-16,0-19.2-11.5-35.2-11.5c-16,0-19.2,11.5-35.3,11.5
		c-16,0-19.2-11.5-35.2-11.5c-16,0-19.2,11.5-35.2,11.5c-16,0-19.2-11.5-35.1-11.5v0h0v0c0,0,0,0-0.1,0s0,0-0.1,0v0
		c-15.9,0.1-19.1,11.5-35.1,11.5C368.2,26.5,365,15,349,15c-16,0-19.2,11.5-35.2,11.5c-16,0-19.2-11.5-35.2-11.5
		c-16,0-19.2,11.5-35.2,11.5c-14.6,0-18.5-9.5-31.2-11.3v0V15c-0.7,0-1.4,0-2,0.1c-0.7,0-1.3-0.1-2-0.1v0.3v0
		c-12.6,1.7-16.6,11.3-31.2,11.3c-16,0-19.2-11.5-35.2-11.5c-16,0-19.2,11.5-35.3,11.5c-16,0-19.2-11.5-35.2-11.5
		c-16,0-19.2,11.5-35.2,11.5c-9,0-13.9-3.6-19.3-6.8c-0.1-0.1-0.2-0.1-0.3-0.2C12,17.1,7.5,15,0.6,15v20H1472.4z"/>
</g> -->
<path class="st1" d="M1472.4,37V17c-6.9,0-11.4,2.1-15.6,4.6c-0.1,0.1-0.3,0.2-0.4,0.2c-0.8,0.4-1.5,0.9-2.2,1.3
	c-0.1,0.1-0.3,0.2-0.4,0.2c-4.5,2.7-9.2,5.2-16.6,5.2c-16,0-19.2-11.5-35.2-11.5c-3.5,0-6.4,0.6-8.9,1.4c-1,0.3-2,0.7-2.9,1.2
	c-0.4,0.2-0.8,0.4-1.2,0.6c-1.1,0.6-2.2,1.2-3.2,1.8c-0.3,0.2-0.6,0.4-1,0.6c-0.2,0.1-0.5,0.3-0.7,0.4c-4.7,2.8-9.5,5.6-17.3,5.6
	c-16,0-19.2-11.5-35.2-11.5c-16,0-19.2,11.5-35.2,11.5c-16,0-19.2-11.5-35.1-11.5v0c0,0,0,0-0.1,0c0,0,0,0-0.1,0v0l0,0v0
	c-15.9,0.1-19.1,11.5-35.1,11.5c-16,0-19.2-11.5-35.2-11.5c-16,0-19.2,11.5-35.3,11.5c-16,0-19.2-11.5-35.2-11.5
	c-16,0-19.2,11.5-35.2,11.5c-13.6,0-18-8.4-28.9-10.8c-1.1-0.3-2.3-0.5-3.6-0.6V17c-0.5,0-0.9,0-1.4,0c-0.4,0-0.9,0-1.4,0v0.1
	c-0.4,0-0.8,0.1-1.3,0.1s-0.8,0.1-1.2,0.2c-1.6,0.3-3,0.7-4.3,1.2c-0.3,0.1-0.7,0.2-1,0.4c-8.1,3.3-12.9,9.5-24.7,9.5
	c-16,0-19.2-11.5-35.2-11.5c-16,0-19.2,11.5-35.3,11.5c-16,0-19.2-11.5-35.2-11.5s-19.2,11.5-35.2,11.5c-16,0-19.2-11.5-35.1-11.5v0
	h0v0c0,0,0,0-0.1,0c0,0,0,0-0.1,0v0l0,0v0c-15.9,0.1-19.1,11.5-35.1,11.5c-16,0-19.2-11.5-35.2-11.5c-16,0-19.2,11.5-35.3,11.5
	c-16,0-19.2-11.5-35.2-11.5c-16,0-19.2,11.5-35.2,11.5c-15.5,0-19-10.8-33.8-11.5v0c-0.2,0-0.5,0-0.7,0h0l0,0c0,0,0,0,0,0
	c-0.2,0-0.5,0-0.7,0v0c-14.8,0.7-18.3,11.5-33.8,11.5c-16,0-19.2-11.5-35.2-11.5c-16,0-19.2,11.5-35.3,11.5
	c-16,0-19.2-11.5-35.2-11.5c-16,0-19.2,11.5-35.2,11.5c-16,0-19.2-11.5-35.1-11.5v0h0v0c0,0,0,0-0.1,0s0,0-0.1,0v0
	c-15.9,0.1-19.1,11.5-35.1,11.5C368.2,28.5,365,17,349,17c-16,0-19.2,11.5-35.2,11.5c-16,0-19.2-11.5-35.2-11.5
	c-16,0-19.2,11.5-35.2,11.5c-14.6,0-18.5-9.5-31.2-11.3v0V17c-0.7,0-1.4,0-2,0.1c-0.7,0-1.3-0.1-2-0.1v0.3v0
	c-12.6,1.7-16.6,11.3-31.2,11.3c-16,0-19.2-11.5-35.2-11.5c-16,0-19.2,11.5-35.3,11.5c-16,0-19.2-11.5-35.2-11.5
	c-16,0-19.2,11.5-35.2,11.5c-9,0-13.9-3.6-19.3-6.8c-0.1-0.1-0.2-0.1-0.3-0.2C12,19.1,7.5,17,0.6,17v20H1472.4z"/>
</svg>
